<?xml version="1.0" encoding="UTF-8" standalone="no"?>
<!DOCTYPE svg PUBLIC "-//W3C//DTD SVG 1.1//EN" "http://www.w3.org/Graphics/SVG/1.1/DTD/svg11.dtd">
<svg width="100%" height="100%" viewBox="0 0 1087 208" version="1.1" xmlns="http://www.w3.org/2000/svg" xmlns:xlink="http://www.w3.org/1999/xlink" xml:space="preserve" xmlns:serif="http://www.serif.com/" style="fill-rule:evenodd;clip-rule:evenodd;stroke-linejoin:round;stroke-miterlimit:2;">
    <g transform="matrix(1,0,0,1,-128.3,-92.2)">
        <g>
            <rect x="128.3" y="107.3" width="30.3" height="121" style="fill:rgb(21,28,31);fill-rule:nonzero;"/>
            <path d="M229.5,166.7L229.5,228.3L199.2,228.3L199.2,123.1L190.8,109.2L190.8,107.2L226.4,107.2L271.3,175.5L271.3,107.2L301.6,107.2L301.6,228.2L271.3,228.2L229.5,166.7Z" style="fill:rgb(21,28,31);fill-rule:nonzero;"/>
            <path d="M406.7,141.8C400.6,137.9 389.4,133.6 380.7,133.6C372,133.6 369,137.2 369,141.3C369,144.1 371.8,147.2 376.8,150L390.5,157.8C406.5,167.1 413.1,178.3 413.1,192.3C413.1,212.2 400.3,230.2 370.9,230.2C359.3,230.2 347.9,227.7 339.9,224.5L339.9,191.6C346.5,196.8 358.9,201.9 369.6,201.9C376.7,201.9 380.8,199.2 380.8,194.1C380.8,191.3 378.5,188.6 372.8,185.4L358.4,177.2C341.5,167.6 336.5,156.7 336.5,142.3C336.5,124.7 347.4,105.3 380.8,105.3C389.2,105.3 398.8,107.1 406.6,110.3L406.6,141.8L406.7,141.8Z" style="fill:rgb(21,28,31);fill-rule:nonzero;"/>
            <path d="M672.6,228.3L649.8,161.2L649.8,228.3L619.5,228.3L619.5,107.3L656.9,107.3L685.7,189.7L714.5,107.3L751.7,107.3L751.7,228.3L721.4,228.3L721.4,161L698.6,228.3L672.6,228.3Z" style="fill:rgb(21,28,31);fill-rule:nonzero;"/>
            <path d="M821.8,166.7L821.8,228.3L791.5,228.3L791.5,123.1L783.1,109.2L783.1,107.2L818.7,107.2L863.6,175.5L863.6,107.2L893.9,107.2L893.9,228.2L863.6,228.2L821.8,166.7Z" style="fill:rgb(21,28,31);fill-rule:nonzero;"/>
            <rect x="933.5" y="107.3" width="30.3" height="121" style="fill:rgb(21,28,31);fill-rule:nonzero;"/>
            <path d="M1070.2,206.4L1029.8,206.4L1022.5,228.3L988.7,228.3L1033.2,107.3L1067,107.3L1111.5,228.3L1077.7,228.3L1070.2,206.4ZM1039.8,177.2L1060.4,177.2L1050.1,146.8L1039.8,177.2Z" style="fill:rgb(21,28,31);fill-rule:nonzero;"/>
            <path d="M1212.9,225.3C1205.2,228.5 1196.5,230.3 1187.4,230.3C1152,230.3 1125.1,203.2 1125.1,167.8C1125.1,132.4 1152,105.3 1187.4,105.3C1196.5,105.3 1205.2,107.1 1212.9,110.3L1212.9,145C1207,139.5 1198.1,135.6 1187.4,135.6C1169.6,135.6 1156.3,150.2 1156.3,167.8C1156.3,185.6 1169.6,200 1187.4,200C1198.1,200 1207.3,196.1 1212.9,190.9L1212.9,225.3Z" style="fill:rgb(21,28,31);fill-rule:nonzero;"/>
        </g>
    </g>
    <g transform="matrix(1,0,0,1,-128.3,-92.2)">
        <path d="M1036.1,270.4C1033.4,269 1029.5,268 1025.2,268C1019.3,268 1014.8,272.4 1014.8,278.7C1014.8,284.6 1019,289.4 1024.8,289.4C1030.2,289.4 1033.2,285.8 1033.2,282.8L1033.2,282.4L1024.7,282.4L1024.7,273.3L1043.6,273.3C1044,274.9 1044.2,277.3 1044.2,279.5C1044.2,290 1037.7,299.5 1024.5,299.5C1012.8,299.5 1004.4,290.5 1004.4,278.7C1004.4,266.9 1013.1,257.9 1025.2,257.9C1029.2,257.9 1033.4,258.5 1036.1,259.5L1036.1,270.4Z" style="fill:rgb(21,28,31);fill-rule:nonzero;"/>
        <path d="M1075.7,291.6L1062.2,291.6L1059.8,298.9L1048.5,298.9L1063.3,258.6L1074.6,258.6L1089.4,298.9L1078.1,298.9L1075.7,291.6ZM1065.6,281.9L1072.5,281.9L1069.1,271.8L1065.6,281.9Z" style="fill:rgb(21,28,31);fill-rule:nonzero;"/>
        <path d="M1115.5,298.9L1107.9,276.5L1107.9,298.9L1097.8,298.9L1097.8,258.6L1110.3,258.6L1119.9,286.1L1129.5,258.6L1141.9,258.6L1141.9,298.9L1131.8,298.9L1131.8,276.5L1124.2,298.9L1115.5,298.9Z" style="fill:rgb(21,28,31);fill-rule:nonzero;"/>
        <path d="M1155.2,298.9L1155.2,258.6L1178.8,258.6L1178.8,268.3L1165.3,268.3L1165.3,273.7L1177.6,273.7L1177.6,283.4L1165.3,283.4L1165.3,289.2L1178.8,289.2L1178.8,298.9L1155.2,298.9Z" style="fill:rgb(21,28,31);fill-rule:nonzero;"/>
        <path d="M1212.9,270.1C1210.9,268.8 1207.1,267.4 1204.2,267.4C1201.3,267.4 1200.3,268.6 1200.3,270C1200.3,270.9 1201.2,272 1202.9,272.9L1207.5,275.5C1212.8,278.6 1215,282.3 1215,287C1215,293.6 1210.7,299.6 1200.9,299.6C1197,299.6 1193.2,298.8 1190.6,297.7L1190.6,286.7C1192.8,288.4 1196.9,290.1 1200.5,290.1C1202.9,290.1 1204.2,289.2 1204.2,287.5C1204.2,286.6 1203.4,285.7 1201.5,284.6L1196.7,281.9C1191.1,278.7 1189.4,275.1 1189.4,270.3C1189.4,264.4 1193,258 1204.2,258C1207,258 1210.2,258.6 1212.8,259.7L1212.8,270.1L1212.9,270.1Z" style="fill:rgb(21,28,31);fill-rule:nonzero;"/>
    </g>
    <g transform="matrix(1,0,0,1,-128.3,-92.2)">
        <path d="M498.5,124.1C493.1,122.6 487.4,122 481.4,122.6C459.6,124.8 442.3,142.7 440.8,164.5C439,191 459.9,213.1 486.1,213.1C490.4,213.1 494.6,212.5 498.5,211.4C499.4,211.1 499.5,209.9 498.6,209.5C482.4,202.6 471,186.5 471,167.7C471,148.9 482.4,132.8 498.6,125.9C499.5,125.6 499.4,124.4 498.5,124.1Z" style="fill:rgb(120,177,187);fill-rule:nonzero;"/>
        <path d="M561.7,167.8C561.7,202.7 538.1,232.1 505.9,240.8C504.9,241.1 505,242.6 506,242.8C510.6,243.4 515.3,243.6 520.1,243.4C558.7,241.5 589.9,210.2 591.8,171.6C593.9,128.1 559.3,92.2 516.2,92.2C512.7,92.2 509.3,92.4 506,92.9C504.9,93 504.8,94.6 505.9,94.9C538.1,103.5 561.7,132.9 561.7,167.8Z" style="fill:rgb(120,177,187);fill-rule:nonzero;"/>
    </g>
</svg>
